<svg width="24" height="21" viewBox="0 0 24 21" fill="none" xmlns="http://www.w3.org/2000/svg">
<path d="M23.2625 5.12067C23.1567 4.9678 23.0154 4.84286 22.8508 4.75654C22.6862 4.67022 22.5031 4.62509 22.3172 4.62503H6.60056L5.2735 1.43961C5.09949 1.02013 4.80485 0.661761 4.42692 0.409944C4.04899 0.158127 3.60479 0.0242023 3.15065 0.0251515H0.467773V2.32509H3.15065L8.60611 15.4175C8.69349 15.627 8.8409 15.8059 9.02978 15.9318C9.21866 16.0576 9.44056 16.1247 9.66753 16.1247H18.8673C19.3468 16.1247 19.7758 15.8269 19.9448 15.3795L23.3947 6.17979C23.4599 6.00571 23.4819 5.81841 23.4589 5.63396C23.4359 5.4495 23.3685 5.27337 23.2625 5.12067ZM18.0704 13.8248H10.4346L7.55963 6.92497H20.6578L18.0704 13.8248Z" fill="white"/>
<path d="M10.2425 20.7246C11.1952 20.7246 11.9675 19.9523 11.9675 18.9996C11.9675 18.0469 11.1952 17.2747 10.2425 17.2747C9.28987 17.2747 8.51758 18.0469 8.51758 18.9996C8.51758 19.9523 9.28987 20.7246 10.2425 20.7246Z" fill="white"/>
<path d="M18.2923 20.7246C19.245 20.7246 20.0173 19.9523 20.0173 18.9996C20.0173 18.0469 19.245 17.2747 18.2923 17.2747C17.3397 17.2747 16.5674 18.0469 16.5674 18.9996C16.5674 19.9523 17.3397 20.7246 18.2923 20.7246Z" fill="white"/>
</svg>
