<svg width="36" height="36" viewBox="0 0 36 36" fill="none" xmlns="http://www.w3.org/2000/svg">
<path d="M30.8416 2.81218C30.7335 2.54245 30.547 2.31131 30.3063 2.14857C30.0656 1.98584 29.7816 1.89898 29.491 1.8992H6.23049C5.93991 1.89898 5.65593 1.98584 5.4152 2.14857C5.17446 2.31131 4.98802 2.54245 4.87992 2.81218L1.97236 10.0811C1.90423 10.2533 1.86921 10.4367 1.86914 10.6219V32.4286C1.86914 32.8142 2.02231 33.184 2.29494 33.4566C2.56758 33.7293 2.93736 33.8824 3.32292 33.8824H32.3986C32.7841 33.8824 33.1539 33.7293 33.4266 33.4566C33.6992 33.184 33.8524 32.8142 33.8524 32.4286V10.6219C33.8523 10.4367 33.8173 10.2533 33.7491 10.0811L30.8416 2.81218ZM7.2147 4.80677H28.5068L30.2513 9.16811H5.47016L7.2147 4.80677ZM4.77671 30.9749V12.0757H30.9448V30.9749H4.77671Z" fill="white"/>
<path d="M14.9545 25.1597H9.13933C8.75376 25.1597 8.38399 25.3129 8.11135 25.5855C7.83871 25.8581 7.68555 26.2279 7.68555 26.6135C7.68555 26.9991 7.83871 27.3688 8.11135 27.6415C8.38399 27.9141 8.75376 28.0673 9.13933 28.0673H14.9545C15.34 28.0673 15.7098 27.9141 15.9824 27.6415C16.2551 27.3688 16.4082 26.9991 16.4082 26.6135C16.4082 26.2279 16.2551 25.8581 15.9824 25.5855C15.7098 25.3129 15.34 25.1597 14.9545 25.1597Z" fill="white"/>
</svg>
