<svg width="27" height="27" viewBox="0 0 27 27" fill="none" xmlns="http://www.w3.org/2000/svg">
<path d="M13.3809 0.0141602C6.21237 0.0141602 0.380859 5.84567 0.380859 13.0142C0.380859 20.1826 6.21237 26.0142 13.3809 26.0142C20.5493 26.0142 26.3809 20.1826 26.3809 13.0142C26.3809 5.84567 20.5493 0.0141602 13.3809 0.0141602ZM19.9697 10.2593L12.928 17.3008C12.7167 17.5121 12.4394 17.6184 12.1621 17.6184C11.8848 17.6184 11.6075 17.5121 11.3962 17.3008L7.87546 13.78C7.45175 13.3565 7.45175 12.6718 7.87546 12.2483C8.29897 11.8246 8.98352 11.8246 9.40723 12.2483L12.1621 15.0032L18.438 8.72751C18.8615 8.3038 19.546 8.3038 19.9697 8.72751C20.3932 9.15102 20.3932 9.83557 19.9697 10.2593Z" fill="#FF6565"/>
</svg>
