<svg width="27" height="27" viewBox="0 0 27 27" fill="none" xmlns="http://www.w3.org/2000/svg">
<path d="M13.6934 0.0141602C6.52487 0.0141602 0.693359 5.84567 0.693359 13.0142C0.693359 20.1826 6.52487 26.0142 13.6934 26.0142C20.8618 26.0142 26.6934 20.1826 26.6934 13.0142C26.6934 5.84567 20.8618 0.0141602 13.6934 0.0141602ZM20.2822 10.2593L13.2405 17.3008C13.0292 17.5121 12.7519 17.6184 12.4746 17.6184C12.1973 17.6184 11.92 17.5121 11.7087 17.3008L8.18796 13.78C7.76425 13.3565 7.76425 12.6718 8.18796 12.2483C8.61147 11.8246 9.29602 11.8246 9.71973 12.2483L12.4746 15.0032L18.7505 8.72751C19.174 8.3038 19.8585 8.3038 20.2822 8.72751C20.7057 9.15102 20.7057 9.83557 20.2822 10.2593Z" fill="#ACABAB"/>
</svg>
